<svg xmlns="http://www.w3.org/2000/svg" xml:space="preserve" fill-rule="nonzero" stroke-linecap="round" stroke-linejoin="round" stroke-miterlimit="10" clip-rule="evenodd" version="1.1" viewBox="0 0 1024 1024"><defs><radialGradient id="a" cx="498.277" cy="538.847" r="453.661" gradientUnits="userSpaceOnUse"><stop offset="0" stop-color="#000"/><stop offset="1" stop-color="#00356a"/></radialGradient><radialGradient id="b" cx="590.875" cy="503.736" r="276.628" gradientUnits="userSpaceOnUse"><stop offset="0" stop-color="#ce255e"/><stop offset="1" stop-color="#f06b98"/></radialGradient><radialGradient id="c" cx="444.846" cy="461.793" r="329.541" gradientUnits="userSpaceOnUse"><stop offset="0" stop-color="#39b58b"/><stop offset="1" stop-color="#4eebb6"/></radialGradient></defs><g fill-rule="nonzero" stroke="none"><path d="M498.312 78.344c-12.426 0-22.5 10.073-22.5 22.5V525L89.5 717.156c-11.126 5.534-15.66 19.03-10.125 30.156 5.534 11.127 19.061 15.66 30.187 10.126l388.063-193 414.25 308.718c9.964 7.426 24.074 5.37 31.5-4.594 7.426-9.963 5.37-24.043-4.594-31.468l-417.969-311.5v-424.75c0-12.427-10.073-22.5-22.5-22.5Z" fill="url(#a)" opacity="1"/><path d="M585.567 454.171c0-24.783 20.09-44.873 44.873-44.873 24.782 0 44.872 20.09 44.872 44.873 0 24.782-20.09 44.873-44.872 44.873-24.783 0-44.873-20.091-44.873-44.873Zm5.622-122.037c0-21.482 17.414-38.896 38.896-38.896s38.896 17.414 38.896 38.896-17.414 38.896-38.896 38.896-38.896-17.414-38.896-38.896Zm104.761-53.06c0-21.482 17.415-38.896 38.897-38.896s38.896 17.414 38.896 38.896-17.414 38.897-38.896 38.897-38.897-17.415-38.897-38.897ZM796.384 437.12c0-16.472 13.353-29.825 29.825-29.825 16.47 0 29.82 13.353 29.82 29.825 0 16.471-13.354 29.824-29.825 29.824-16.473 0-29.826-13.353-29.826-29.824Zm-98.168-10.326c0-12.63 10.238-22.868 22.868-22.868 12.63 0 22.87 10.238 22.87 22.868 0 12.63-10.24 22.87-22.87 22.87s-22.868-10.24-22.868-22.87Zm-12.6 103.586c0-17.754 14.393-32.147 32.148-32.147 17.755 0 32.148 14.393 32.148 32.147 0 17.755-14.393 32.148-32.148 32.148-17.755 0-32.148-14.393-32.148-32.148Zm75.059 63.16c0-24.959 20.233-45.19 45.192-45.19 24.96 0 45.192 20.23 45.192 45.19 0 24.96-20.233 45.192-45.192 45.192s-45.192-20.233-45.192-45.192Z" fill="url(#b)" opacity="1"/><path d="M305.437 193.421c0-24.783 20.09-44.873 44.873-44.873 24.782 0 44.873 20.09 44.873 44.873 0 24.782-20.091 44.873-44.873 44.873-24.783 0-44.873-20.091-44.873-44.873Zm-37.196 127.727c0-20.998 17.022-38.02 38.02-38.02 21 0 38.02 17.022 38.02 38.02 0 20.998-17.02 38.019-38.02 38.019-20.993 0-38.02-17.02-38.02-38.019Zm102.981 86.022c0-20.998 17.022-38.02 38.02-38.02 20.997 0 38.02 17.022 38.02 38.02 0 20.997-17.023 38.02-38.02 38.02-20.998 0-38.02-17.023-38.02-38.02Zm-189.594 2.18c0-17.093 13.858-30.951 30.952-30.951 17.095 0 30.952 13.858 30.952 30.952 0 17.095-13.857 30.952-30.952 30.952-17.094 0-30.952-13.857-30.952-30.952Zm-17.132-119.9c0-13.917 11.282-25.2 25.199-25.2 13.916 0 25.198 11.283 25.198 25.2s-11.282 25.198-25.198 25.198c-13.917 0-25.199-11.281-25.199-25.198Zm57.54 227.07c0-13.917 11.283-25.2 25.2-25.2s25.198 11.283 25.198 25.2c0 13.916-11.281 25.198-25.198 25.198s-25.2-11.282-25.2-25.199Z" fill="url(#c)" opacity="1"/><g opacity="1"><path d="m262.612 390.456 76.23 57.792v372.906l-76.23-57.79v-372.91Z" fill="#365d86" opacity="1"/><path d="m412.657 408.921-74.847 39.485v372.906l74.847-39.484V408.921Z" fill="#2a425b" opacity="1"/><path d="m413.657 408.921-74.847 39.485-76.68-58.219 74.847-39.485 76.68 58.219Z" fill="#5181b3" opacity="1"/><path d="m373.821 529.406 76.23 57.791V905.81l-76.23-57.79.005-318.614Z" fill="#365d86" opacity="1"/><path d="m523.866 547.871-74.847 39.484v318.614l74.847-39.484V547.871Z" fill="#2a425b" opacity="1"/><path d="m524.866 547.871-74.847 39.484-76.68-58.22 74.847-39.483 76.68 58.219Z" fill="#5181b3" opacity="1"/><path d="m489.44 669.916 76.23 57.79V992.03l-76.23-57.79V669.915Z" fill="#365d86" opacity="1"/><path d="m639.485 688.381-74.847 39.484v264.322l74.847-39.485V688.381Z" fill="#2a425b" opacity="1"/><path d="m640.485 688.381-74.847 39.484-76.68-58.22 74.847-39.483 76.68 58.219Z" fill="#5181b3" opacity="1"/></g></g></svg>